<?xml version="1.0" standalone="no"?>
<!DOCTYPE svg PUBLIC "-//W3C//DTD SVG 20010904//EN"
 "http://www.w3.org/TR/2001/REC-SVG-20010904/DTD/svg10.dtd">
<svg version="1.0" xmlns="http://www.w3.org/2000/svg"
 width="1000.000000pt" height="412.000000pt" viewBox="0 0 1000.000000 412.000000"
 preserveAspectRatio="xMidYMid meet">
<metadata>
Created by potrace 1.15, written by Peter Selinger 2001-2017
</metadata>
<g transform="translate(0.000000,412.000000) scale(0.100000,-0.100000)"
fill="#000000" stroke="none">
<path d="M9640 3846 c-36 -11 -69 -24 -75 -27 -5 -4 -27 -12 -48 -19 -21 -6
-57 -26 -80 -44 -23 -17 -78 -52 -122 -76 -54 -31 -113 -77 -183 -145 -58 -55
-130 -124 -160 -153 -67 -64 -73 -67 -182 -77 -47 -4 -89 -10 -95 -14 -5 -4
-29 -13 -53 -20 -34 -9 -47 -10 -58 0 -19 16 -18 22 9 51 53 58 132 201 123
224 -9 23 -41 16 -97 -20 -81 -52 -129 -96 -129 -118 0 -19 2 -19 35 7 20 15
43 24 50 21 21 -7 19 -42 -3 -58 -9 -7 -33 -36 -52 -65 -41 -60 -67 -80 -84
-63 -8 8 -5 21 12 50 27 47 28 70 4 70 -21 0 -33 -12 -95 -90 -35 -45 -51 -57
-92 -68 -28 -7 -70 -20 -95 -27 -25 -8 -83 -19 -130 -25 -46 -7 -91 -15 -100
-20 -8 -4 -61 -18 -118 -30 -56 -11 -128 -30 -160 -40 -56 -19 -92 -25 -92
-15 0 3 26 45 58 93 95 141 126 238 83 261 -43 23 -113 -21 -251 -159 -115
-115 -188 -196 -214 -237 -25 -41 -79 -83 -130 -103 -13 -5 -83 -12 -155 -16
-135 -7 -167 -17 -154 -49 3 -9 17 -18 32 -22 25 -6 201 9 231 21 8 3 22 2 30
-4 12 -8 11 -13 -8 -37 -13 -15 -30 -41 -40 -56 -86 -143 -126 -219 -151 -289
-51 -142 -84 -198 -153 -259 -86 -76 -142 -111 -170 -107 -20 3 -23 8 -22 49
3 69 36 123 145 233 55 56 98 108 97 116 -2 9 -16 16 -33 17 -25 2 -36 -5 -67
-45 -21 -26 -80 -92 -133 -147 -53 -55 -107 -116 -119 -135 -13 -19 -38 -48
-55 -65 -18 -16 -49 -47 -70 -67 -21 -22 -48 -38 -61 -38 -22 0 -22 2 -16 62
9 74 21 98 78 164 87 97 148 175 148 188 0 8 -8 17 -17 20 -21 8 -170 -141
-230 -229 -22 -34 -59 -76 -82 -95 -23 -19 -59 -50 -81 -68 -54 -46 -74 -40
-77 23 -4 93 45 196 129 273 54 49 83 99 68 117 -8 9 -22 12 -40 8 -24 -4 -35
1 -68 36 -27 28 -47 41 -66 41 -32 0 -88 -35 -141 -90 -22 -23 -49 -45 -60
-49 -11 -5 -81 -5 -155 -1 -74 4 -166 2 -205 -3 -87 -11 -337 -3 -387 12 -25
8 -43 22 -53 42 -9 16 -27 34 -40 39 -27 10 -32 32 -12 47 6 6 37 18 67 28 30
9 78 27 105 40 28 13 93 34 145 49 52 14 127 36 165 50 39 13 99 32 134 41 35
9 73 22 85 30 11 7 50 21 86 30 73 19 144 52 196 91 27 21 34 33 32 53 l-3 26
-148 -2 c-81 0 -153 -5 -160 -11 -7 -5 -59 -20 -117 -32 -58 -13 -123 -32
-145 -43 -22 -11 -85 -35 -140 -52 -55 -18 -125 -46 -155 -62 -30 -16 -75 -35
-100 -42 -25 -7 -61 -22 -80 -33 -78 -46 -221 -118 -235 -118 -37 0 0 72 93
179 50 58 62 79 55 99 -10 26 -50 12 -76 -25 -13 -21 -39 -54 -57 -73 -29 -31
-54 -62 -141 -176 -15 -18 -55 -64 -89 -101 -34 -38 -70 -79 -78 -93 -33 -50
-79 -107 -148 -181 -40 -42 -88 -103 -109 -135 -46 -74 -113 -144 -137 -144
-22 0 -23 16 -3 53 8 16 20 47 26 70 6 22 34 79 62 126 29 47 65 112 81 144
27 55 28 59 12 75 -16 16 -20 14 -56 -28 -22 -25 -46 -58 -54 -75 -18 -35
-114 -140 -122 -132 -3 3 6 31 21 64 15 32 31 69 37 83 6 14 15 34 21 45 57
104 61 131 22 141 -29 7 -30 19 -11 94 7 30 19 85 27 123 l13 67 -29 30 c-60
63 -134 64 -255 2 -207 -104 -531 -447 -655 -691 -45 -90 -70 -301 -41 -346
28 -42 6 -60 -106 -85 -92 -20 -133 35 -68 92 32 28 39 62 15 72 -10 3 -37
-17 -80 -60 -55 -57 -68 -66 -90 -60 -24 6 -25 10 -23 59 3 49 2 52 -23 55
-21 2 -32 -6 -60 -47 -19 -28 -38 -51 -42 -51 -5 0 -16 9 -26 21 -14 18 -20
19 -43 9 -14 -7 -34 -28 -45 -47 -26 -51 -159 -155 -191 -151 -46 6 -49 30
-12 105 19 37 42 79 52 92 24 32 23 58 -4 72 -13 7 -31 23 -41 36 -37 46 -76
27 -205 -99 -75 -73 -160 -189 -193 -262 -23 -50 -24 -114 -3 -144 20 -30 31
-28 89 14 66 47 134 125 141 164 4 17 16 36 27 42 22 11 23 10 70 -57 32 -45
103 -31 188 36 46 36 64 36 93 3 31 -37 52 -23 113 71 49 76 73 98 73 67 0
-10 7 -28 16 -40 12 -17 25 -22 62 -22 30 0 58 -7 77 -20 17 -11 43 -20 58
-20 47 0 170 31 206 51 30 18 45 19 140 13 91 -6 112 -4 141 11 18 9 64 26
102 36 38 11 92 30 120 44 29 14 55 25 60 25 16 0 7 -38 -18 -75 -14 -21 -23
-44 -20 -51 11 -28 37 -13 69 39 17 29 37 60 42 69 6 9 31 47 56 85 26 37 53
82 62 98 17 34 54 71 63 62 3 -3 0 -29 -6 -59 -7 -29 -10 -66 -8 -83 4 -41 46
-46 96 -12 43 28 122 105 122 118 0 13 141 189 151 189 5 0 31 29 59 64 47 60
83 86 97 72 4 -3 -10 -41 -29 -83 -34 -74 -53 -122 -93 -238 -10 -27 -24 -68
-33 -90 -21 -56 -41 -153 -42 -199 0 -53 53 -152 87 -161 30 -7 65 14 90 53 9
15 23 33 32 39 8 7 11 16 7 20 -4 4 -10 2 -14 -4 -11 -17 -75 -53 -95 -53 -24
0 -39 43 -39 115 0 47 15 104 67 260 37 110 84 234 106 275 21 41 47 96 58
122 21 49 104 126 168 154 17 7 34 18 37 23 4 5 19 12 35 16 16 3 56 25 88 47
32 23 95 54 141 69 46 16 98 37 115 47 18 11 82 36 144 56 62 20 127 45 145
55 18 10 67 24 109 30 41 5 89 17 105 26 32 16 189 22 179 6 -3 -5 -29 -17
-58 -26 -28 -10 -74 -28 -102 -41 -27 -12 -86 -31 -130 -40 -44 -10 -100 -26
-125 -37 -25 -10 -81 -28 -125 -38 -44 -10 -109 -32 -145 -48 -36 -16 -99 -40
-140 -52 -92 -28 -120 -53 -120 -107 0 -23 6 -45 15 -52 8 -7 15 -24 15 -39 0
-36 -32 -134 -69 -212 -17 -36 -38 -95 -45 -130 -8 -35 -24 -91 -36 -124 -12
-33 -25 -76 -29 -95 -18 -78 -54 -197 -72 -231 -18 -36 -48 -60 -141 -109 -26
-14 -78 -45 -115 -70 -38 -25 -90 -56 -116 -70 -27 -14 -72 -44 -100 -67 -29
-23 -83 -63 -120 -89 -67 -46 -167 -142 -245 -238 -71 -85 -79 -172 -20 -221
32 -27 57 -32 76 -13 18 18 15 24 -23 47 -39 23 -44 45 -19 93 20 39 165 209
196 231 62 44 160 115 189 139 19 14 68 45 109 68 41 24 95 58 118 78 45 36
167 102 190 102 7 0 12 -12 12 -29 0 -16 6 -34 14 -40 31 -26 82 62 58 99 -17
28 3 45 133 110 66 34 143 74 170 90 28 16 58 30 67 30 9 0 46 20 83 45 60 41
194 115 208 115 4 0 37 20 74 43 111 71 125 70 95 -10 -23 -62 -16 -158 13
-179 34 -25 78 0 143 82 22 27 61 69 87 93 26 25 58 62 72 84 35 56 57 47 63
-26 7 -79 31 -92 106 -61 22 9 56 32 77 50 44 41 67 44 67 10 0 -73 50 -111
106 -81 26 14 94 77 169 157 22 24 32 23 40 -4 12 -39 46 -68 79 -68 38 0 104
32 142 68 16 16 39 34 51 40 19 11 22 8 35 -31 8 -26 20 -43 31 -45 38 -7 87
10 128 44 23 19 47 33 52 31 6 -2 18 -17 27 -33 22 -39 58 -51 111 -35 34 10
68 38 158 130 64 65 133 136 154 159 59 64 68 47 36 -68 -15 -57 -20 -62 -65
-69 -47 -8 -67 -36 -40 -57 28 -20 79 -17 123 7 52 28 150 106 194 152 39 42
73 47 75 11 4 -73 48 -134 96 -134 21 0 46 17 101 70 62 58 82 71 124 80 28 6
59 17 68 24 19 14 13 36 -11 36 -25 0 -15 29 12 36 28 7 44 -7 44 -39 0 -18
-83 -181 -106 -208 -8 -8 -14 -18 -14 -22 0 -3 -15 -32 -34 -64 -26 -44 -35
-75 -41 -128 -9 -91 9 -118 90 -135 37 -8 55 -16 55 -26 0 -9 -22 -41 -50 -72
-75 -85 -132 -165 -184 -256 -43 -75 -72 -118 -147 -220 -24 -33 -29 -50 -29
-98 0 -50 3 -60 25 -74 20 -13 38 -15 87 -10 71 8 101 22 180 82 31 24 59 44
63 44 11 0 109 77 140 110 17 17 68 60 115 96 47 35 105 86 129 114 24 27 75
74 115 104 80 62 339 322 404 406 23 30 69 84 103 120 34 36 86 101 115 146
30 44 84 117 121 162 38 45 79 103 92 129 14 26 39 66 56 88 38 49 115 169
115 179 0 4 20 42 45 84 25 42 53 102 62 132 8 30 28 81 44 113 28 57 42 104
69 232 7 33 19 83 26 111 14 60 3 257 -17 281 -39 46 -100 52 -199 19z m132
-58 c9 -14 18 -62 21 -116 6 -84 4 -105 -27 -230 -19 -75 -48 -170 -65 -211
-17 -40 -36 -92 -42 -115 -6 -22 -32 -76 -57 -120 -26 -43 -63 -109 -83 -145
-19 -37 -61 -105 -93 -151 l-58 -85 -53 -1 c-30 0 -61 -7 -69 -14 -21 -17
-142 -74 -190 -90 -21 -7 -57 -25 -80 -40 -22 -15 -66 -40 -96 -56 -60 -31
-167 -100 -188 -121 -7 -7 -58 -42 -112 -78 -54 -35 -138 -104 -188 -152 -165
-162 -161 -158 -216 -156 -62 3 -78 18 -84 82 -5 57 15 121 52 161 24 26 106
163 106 176 0 4 12 21 27 36 21 22 36 28 70 28 34 0 43 4 43 18 0 9 -9 23 -20
30 -24 15 -26 35 -4 53 9 7 40 49 69 94 29 44 72 103 96 131 24 28 89 113 144
188 209 286 281 375 308 380 12 3 48 7 81 11 32 3 66 9 75 14 9 4 66 13 126
20 191 20 256 33 253 51 -3 11 -15 15 -53 13 -101 -3 -292 -21 -348 -34 -46
-9 -61 -9 -70 0 -9 10 4 28 63 82 97 89 163 140 225 174 28 16 67 43 88 62 41
36 78 55 202 101 100 37 128 39 147 10z m-2125 -502 c-6 -43 -19 -67 -82 -151
-78 -105 -94 -117 -218 -155 -34 -11 -48 11 -25 38 8 9 41 49 75 87 33 39 73
90 89 115 22 34 45 53 94 77 36 18 67 33 69 33 2 0 1 -20 -2 -44z m1203 -44
c0 -10 -19 -36 -41 -57 -23 -22 -66 -77 -95 -122 -30 -46 -89 -126 -132 -178
-42 -52 -120 -153 -172 -225 -114 -157 -124 -167 -145 -150 -20 17 -20 19 16
74 29 43 30 49 16 63 -10 10 -20 12 -30 7 -8 -5 -94 -93 -192 -196 -97 -104
-185 -188 -194 -188 -30 0 -41 22 -41 80 0 61 17 96 68 145 18 17 32 34 32 40
0 5 39 48 88 95 48 47 107 110 130 141 22 31 84 103 136 159 52 56 106 122
118 147 13 25 40 65 61 89 34 38 44 44 80 45 23 0 92 11 152 24 136 29 145 30
145 7z m-460 -95 c0 -20 -55 -93 -129 -172 -37 -38 -93 -104 -126 -145 -33
-41 -80 -95 -104 -120 -37 -37 -46 -42 -49 -27 -2 10 3 26 11 35 8 9 22 32 31
49 9 18 42 64 74 102 31 39 82 103 112 143 94 123 119 148 151 148 17 0 29 -5
29 -13z m-200 -42 c0 -20 -48 -87 -132 -183 -63 -72 -157 -230 -232 -392 -18
-40 -35 -60 -61 -74 -20 -11 -45 -32 -55 -46 -25 -35 -99 -95 -127 -104 -20
-6 -23 -4 -23 21 0 46 29 146 51 176 25 35 22 71 -7 75 -16 2 -42 -20 -105
-90 -46 -51 -113 -123 -149 -159 -36 -36 -86 -88 -112 -115 -65 -68 -104 -96
-130 -92 -16 2 -24 11 -26 29 -4 32 72 137 160 221 60 58 71 89 35 96 -12 3
-59 -38 -145 -125 -70 -70 -153 -145 -184 -166 -32 -21 -60 -42 -63 -47 -16
-25 -27 -7 -23 35 7 60 57 130 131 186 63 48 177 162 177 178 0 6 27 39 61 73
56 58 124 149 175 235 12 19 44 59 71 87 41 44 57 54 94 59 24 3 79 18 122 32
43 14 107 29 142 34 36 5 69 12 74 16 14 8 229 54 259 54 13 1 22 -5 22 -14z
m-780 -196 c0 -11 -24 -49 -52 -85 -29 -35 -80 -98 -113 -140 -87 -111 -149
-179 -233 -256 -53 -50 -72 -58 -72 -33 0 13 5 26 39 105 15 37 55 102 155
253 95 144 86 137 201 165 64 15 75 14 75 -9z m-3430 -122 c30 -16 32 -53 6
-143 -9 -32 -24 -84 -33 -114 -8 -30 -21 -62 -27 -70 -7 -8 -31 -47 -54 -87
-31 -53 -74 -101 -170 -192 -70 -66 -150 -137 -177 -158 -28 -20 -75 -55 -105
-78 -82 -61 -230 -147 -248 -143 -26 5 -35 65 -22 153 15 100 39 155 125 280
88 129 145 197 269 319 213 208 346 279 436 233z m5330 -260 c0 -8 -12 -24
-26 -38 -14 -13 -54 -67 -89 -119 -34 -52 -97 -130 -139 -172 -41 -43 -91
-101 -111 -130 -19 -29 -60 -75 -92 -103 -63 -56 -115 -107 -153 -151 -14 -16
-50 -49 -80 -74 -30 -25 -90 -79 -135 -121 -44 -41 -123 -110 -175 -152 -52
-42 -106 -89 -120 -103 -14 -14 -58 -48 -98 -75 -41 -27 -89 -62 -108 -78 -35
-31 -135 -67 -154 -56 -14 9 -12 46 5 75 8 14 14 36 15 50 0 16 17 44 46 75
25 28 55 68 66 89 30 58 82 131 163 226 39 47 86 106 104 132 34 51 65 71 121
82 19 3 69 20 110 37 41 17 110 43 153 59 79 29 135 65 136 88 1 12 -41 17
-52 5 -9 -8 -108 -43 -124 -43 -7 0 -47 -16 -89 -35 -41 -19 -77 -35 -80 -35
-16 0 4 33 50 80 49 51 88 80 201 154 22 14 65 44 95 66 30 22 78 52 105 67
28 14 75 42 105 62 59 40 187 101 211 101 8 0 32 11 54 25 44 27 85 33 85 12z
m-3262 -63 c34 -24 28 -59 -22 -112 -43 -46 -89 -106 -143 -187 -14 -22 -60
-76 -103 -120 -42 -44 -95 -104 -119 -132 -24 -29 -47 -53 -52 -53 -20 0 -30
41 -18 78 36 115 97 193 207 265 104 69 127 105 96 152 -16 25 -16 27 3 53 21
29 88 72 113 72 9 0 26 -7 38 -16z m-2088 -84 c0 -17 -46 -132 -89 -221 -22
-48 -41 -90 -41 -94 0 -4 -16 -40 -36 -81 -36 -74 -54 -93 -134 -132 -29 -14
-148 -52 -163 -52 -5 0 -34 -11 -63 -25 -87 -41 -174 -44 -174 -5 0 5 29 25
64 44 36 20 71 42 78 49 7 7 49 38 93 70 152 109 361 311 414 400 33 53 51 70
51 47z m1240 -31 c98 -9 160 -10 230 -2 111 12 277 10 291 -4 9 -9 -2 -32 -54
-118 -39 -64 -62 -85 -139 -125 -46 -24 -96 -53 -113 -65 -16 -12 -61 -35
-100 -51 -38 -16 -97 -47 -130 -68 -33 -22 -105 -63 -160 -91 -55 -28 -135
-71 -177 -94 -43 -23 -86 -41 -97 -39 -18 3 -17 8 11 103 16 55 40 127 52 160
13 33 31 94 41 135 20 84 54 173 93 238 25 43 25 44 71 38 25 -3 107 -11 181
-17z m-2930 -544 c0 -15 -15 -42 -38 -68 -51 -56 -92 -113 -92 -126 0 -6 -4
-11 -8 -11 -4 0 -41 -31 -81 -70 -70 -67 -93 -81 -106 -60 -17 27 118 211 223
304 69 62 102 72 102 31z"/>
<path d="M2119 2416 c-3 -3 -54 -10 -114 -16 -167 -16 -417 -80 -595 -152 -41
-16 -108 -41 -149 -54 -72 -24 -119 -46 -151 -70 -8 -6 -53 -26 -100 -45 -47
-18 -105 -46 -130 -61 -25 -15 -80 -46 -123 -68 -43 -23 -115 -66 -159 -96
-44 -31 -100 -67 -124 -80 -24 -13 -73 -47 -110 -75 -37 -28 -79 -55 -93 -61
-54 -20 -111 -52 -131 -73 -18 -19 -19 -24 -6 -34 22 -18 169 48 242 109 33
27 85 63 117 80 31 17 90 52 130 78 39 27 106 66 147 86 41 21 84 46 95 56 19
18 71 43 185 91 30 13 57 26 60 30 11 14 88 47 150 63 36 10 88 30 115 45 28
15 88 37 135 50 47 13 102 32 122 42 20 10 72 23 115 28 43 4 95 16 116 24 45
19 283 42 342 33 52 -8 125 -35 148 -54 41 -35 2 -122 -87 -195 -24 -21 -78
-69 -118 -108 -40 -38 -111 -93 -158 -121 -47 -28 -94 -59 -105 -68 -11 -10
-60 -39 -110 -65 -49 -26 -110 -62 -135 -79 -25 -17 -54 -36 -65 -43 -19 -11
-32 -18 -115 -62 -44 -24 -51 -19 -39 22 5 17 16 55 24 82 7 28 30 102 49 165
20 63 36 118 36 123 0 15 -38 6 -56 -14 -27 -29 -74 -170 -106 -314 -6 -27
-13 -54 -17 -60 -3 -5 -13 -30 -21 -55 -13 -37 -25 -51 -80 -87 -36 -23 -87
-58 -115 -78 -71 -51 -120 -82 -167 -106 -23 -12 -73 -49 -112 -83 -39 -34
-91 -76 -116 -93 -67 -47 -257 -247 -321 -338 -31 -44 -69 -109 -84 -145 -16
-36 -32 -69 -36 -75 -4 -5 -10 -25 -14 -43 -10 -46 10 -88 47 -101 25 -9 35
-7 68 14 64 41 67 69 4 46 -28 -10 -38 -10 -50 0 -18 15 -14 29 48 154 57 114
70 134 164 231 38 39 84 89 103 112 30 38 72 72 167 138 17 12 52 42 79 68 27
25 53 46 58 46 14 0 131 73 140 87 4 7 15 13 22 13 8 0 15 4 15 8 0 10 102 72
119 72 9 0 11 -8 8 -22 -43 -185 -49 -220 -38 -231 22 -22 48 28 85 168 43
162 55 180 169 240 40 21 79 43 87 50 19 16 133 83 186 110 41 21 87 51 145
96 19 14 59 39 89 55 51 26 123 77 160 114 8 8 38 33 65 55 227 180 280 345
128 397 -86 30 -222 55 -234 44z"/>
</g>
</svg>
